<?xml version="1.0" standalone="no"?><!DOCTYPE svg PUBLIC "-//W3C//DTD SVG 1.1//EN" "http://www.w3.org/Graphics/SVG/1.1/DTD/svg11.dtd"><svg t="1627633304679" class="icon" viewBox="0 0 1024 1024" version="1.1" xmlns="http://www.w3.org/2000/svg" p-id="10301" xmlns:xlink="http://www.w3.org/1999/xlink" width="200" height="200"><defs><style type="text/css">@font-face { font-family: feedback-iconfont; src: url("//at.alicdn.com/t/font_1031158_1uhr8ri0pk5.eot?#iefix") format("embedded-opentype"), url("//at.alicdn.com/t/font_1031158_1uhr8ri0pk5.woff2") format("woff2"), url("//at.alicdn.com/t/font_1031158_1uhr8ri0pk5.woff") format("woff"), url("//at.alicdn.com/t/font_1031158_1uhr8ri0pk5.ttf") format("truetype"), url("//at.alicdn.com/t/font_1031158_1uhr8ri0pk5.svg#iconfont") format("svg"); }
</style></defs><path d="M945.501984 397.426673a638.405125 638.405125 0 0 1-158.193411 222.35816q-18.316533 16.268722-37.884506 31.22912a283.394309 283.394309 0 0 1-54.096344 141.412737 606.720936 606.720936 0 0 1-114.279239 119.853835 1000.810814 1000.810814 0 0 1-163.597357 108.818409 26.052708 26.052708 0 0 1-11.718031 2.95795 26.678429 26.678429 0 0 1-21.502017-11.376729 27.531683 27.531683 0 0 1 2.787299-34.926557 361.495551 361.495551 0 0 0 49.545653-69.79623 381.746128 381.746128 0 0 0 48.066678-159.558618 425.091464 425.091464 0 0 1-117.180304-89.193552 428.845784 428.845784 0 0 1-87.714578-119.45565 366.16001 366.16001 0 0 0-156.77132 48.976816 351.085844 351.085844 0 0 0-68.71544 50.455791 26.39401 26.39401 0 0 1-18.714719 7.79306 25.825174 25.825174 0 0 1-15.529234-5.119528 27.076614 27.076614 0 0 1-8.134361-33.732001 1030.902261 1030.902261 0 0 1 106.941248-166.498423A597.847087 597.847087 0 0 1 236.67491 325.298214a273.041486 273.041486 0 0 1 138.909856-55.12025c9.727103-13.197005 19.966159-26.109592 30.774051-38.453343a626.573327 626.573327 0 0 1 218.376305-160.810059A884.028695 884.028695 0 0 1 988.790437 0.094427h26.39401v26.962847a932.266024 932.266024 0 0 1-69.739346 370.369399z m-142.209107-46.929006a132.311354 132.311354 0 1 0-132.425121 134.643583 132.311354 132.311354 0 0 0 132.25447-134.643583z m-132.538888 80.831657a79.978402 79.978402 0 1 1 56.485457-23.89113 80.774773 80.774773 0 0 1-56.485457 23.89113z m-417.525939 279.241803a60.353545 60.353545 0 0 1 42.719616 21.558901 57.736898 57.736898 0 0 1 20.023042 54.266995c-4.095622 18.600951-20.819413 49.261235-77.361755 88.738483a891.878638 891.878638 0 0 1-169.399488 87.714578 857.464034 857.464034 0 0 1 94.768149-184.644305c32.082375-44.312358 62.970193-67.634651 89.193552-67.634652z" fill="#84B1F0" p-id="10302"></path></svg>